<?xml version="1.0" standalone="no"?>
<!DOCTYPE svg PUBLIC "-//W3C//DTD SVG 20010904//EN"
 "http://www.w3.org/TR/2001/REC-SVG-20010904/DTD/svg10.dtd">
<svg version="1.0" xmlns="http://www.w3.org/2000/svg"
 width="700.000000pt" height="700.000000pt" viewBox="0 0 700.000000 700.000000"
 preserveAspectRatio="xMidYMid meet">
<metadata>
Created by potrace 1.11, written by Peter Selinger 2001-2013
</metadata>
<g transform="translate(0.000000,700.000000) scale(0.100000,-0.100000)"
fill="#000000" stroke="none">
<path d="M5430 6984 c-197 -42 -406 -164 -590 -346 -114 -112 -113 -109 -49
-102 30 3 57 8 60 10 12 7 195 18 289 18 130 -1 207 -11 308 -40 77 -22 238
-92 230 -100 -2 -1 -32 1 -68 5 -147 18 -362 2 -548 -38 -83 -18 -317 -93
-329 -105 -13 -13 26 -65 122 -161 113 -114 180 -162 287 -204 99 -40 191 -55
302 -48 156 10 234 27 516 117 213 68 298 90 418 110 104 17 295 20 361 5 39
-8 40 -13 -32 90 -210 296 -427 516 -647 655 -79 50 -230 116 -290 126 -14 3
-32 7 -40 10 -33 13 -237 12 -300 -2z"/>
<path d="M1970 6809 c-113 -25 -170 -44 -260 -87 -70 -32 -211 -117 -254 -152
-108 -88 -208 -189 -288 -290 -33 -41 -65 -82 -71 -90 -35 -43 -132 -209 -181
-307 -63 -126 -103 -223 -153 -368 -50 -146 -116 -416 -138 -565 -9 -60 -14
-82 -34 -150 -27 -89 -45 -153 -46 -165 -1 -5 -11 -50 -23 -100 -11 -49 -24
-103 -27 -120 -5 -30 -11 -59 -20 -105 -6 -30 -31 -187 -40 -250 -3 -25 -9
-61 -11 -80 -3 -19 -7 -42 -9 -50 -4 -14 -38 -277 -50 -385 -3 -27 -12 -102
-20 -165 -8 -63 -17 -143 -20 -177 -3 -34 -7 -70 -9 -80 -2 -10 -7 -49 -10
-88 -4 -38 -8 -86 -11 -105 -3 -19 -7 -62 -10 -95 -3 -33 -8 -76 -10 -95 -2
-19 -7 -71 -10 -115 -3 -44 -8 -91 -10 -105 -2 -14 -7 -83 -11 -155 -3 -71 -8
-148 -10 -170 -5 -49 -4 -804 0 -860 2 -22 6 -96 10 -165 9 -164 15 -231 42
-444 64 -503 200 -751 397 -723 68 10 83 14 123 35 81 42 141 123 169 227 15
58 20 272 10 480 -2 39 -6 138 -10 220 -3 83 -8 188 -10 235 -3 47 -7 130 -9
185 -3 55 -8 168 -12 250 -14 268 -7 828 11 995 2 19 5 59 6 88 1 28 3 52 5
52 1 0 27 -48 57 -107 30 -60 70 -135 89 -168 18 -33 40 -73 48 -89 23 -44
121 -102 229 -135 166 -51 370 -98 506 -116 28 -4 61 -9 75 -11 27 -4 111 -12
200 -20 68 -5 376 -5 410 0 14 2 59 7 100 11 41 4 83 9 93 10 10 2 51 9 90 15
531 87 1035 345 1408 721 135 136 225 252 345 444 55 88 174 363 188 436 2 13
12 56 21 94 24 101 30 170 30 345 0 295 -44 491 -165 735 -142 286 -348 472
-574 520 -207 43 -407 -49 -565 -258 -61 -80 -56 -92 54 -148 145 -74 151 -78
222 -138 140 -118 233 -266 273 -436 22 -95 21 -265 -4 -370 -15 -67 -20 -86
-42 -147 -83 -238 -265 -484 -494 -669 -55 -44 -230 -158 -287 -188 -24 -11
-61 -30 -82 -41 -91 -47 -321 -124 -436 -146 -164 -32 -272 -41 -445 -38 -102
1 -198 5 -215 8 -16 2 -52 8 -80 11 -27 4 -57 8 -65 10 -8 2 -31 6 -50 9 -19
4 -80 19 -135 33 -101 26 -140 49 -184 105 -55 69 -221 627 -255 853 -2 17 -9
60 -15 98 -40 238 -46 563 -15 817 18 155 83 419 129 525 108 246 200 392 330
518 164 160 332 243 512 251 340 15 603 -274 702 -774 6 -30 13 -68 15 -85 19
-160 27 -182 62 -171 10 3 58 59 106 124 146 199 358 432 559 618 80 74 263
214 379 290 152 99 200 127 358 205 107 53 122 64 122 86 0 53 -112 188 -205
248 -150 96 -281 80 -510 -63 -85 -53 -320 -207 -325 -212 -3 -3 -48 -35 -100
-70 -52 -35 -116 -79 -142 -97 -26 -18 -54 -33 -62 -33 -8 0 -36 30 -62 68
-211 299 -437 470 -729 550 -124 33 -340 39 -465 11z"/>
</g>
</svg>
